PathFileType	4	(X/Y/Z)	C:\Users\Graham\Documents\MATLAB\MOtoNMS_v2_2\MyData\ElaboratedData\S1\17-05-18\staticElaborations\Static1\Static1\\Static1.trc
DataRate	CameraRate	NumFrames	NumMarkers	Units	OrigDataRate	DataStartFrame
100	100	8	38	mm	100	2
Frame#	Time	V_Sacral			R_ASIS			L_ASIS			R_Knee_Lat			R_Knee_Med			R_Thigh_Upper			R_Thigh_Front			R_Thigh_Rear			L_Knee_Lat			L_Knee_Med			L_Thigh_Upper			L_Thigh_Front			L_Thigh_Rear			R_Ankle_Lat			R_Ankle_Med			R_Shank_Upper			R_Shank_Front			R_Shank_Rear			L_Ankle_Lat			L_Ankle_Med			L_Shank_Upper			L_Shank_Front			L_Shank_Rear			R_Heel			R_MTP1			R_MTP5			L_Heel			L_MTP1			L_MTP5			Clavicle			R_Acromium			L_Acromium			LAJC			RAJC			LHJC			RHJC			LKJC			RKJC		
		X1	Y1	Z1	X2	Y2	Z2	X3	Y3	Z3	X4	Y4	Z4	X5	Y5	Z5	X6	Y6	Z6	X7	Y7	Z7	X8	Y8	Z8	X9	Y9	Z9	X10	Y10	Z10	X11	Y11	Z11	X12	Y12	Z12	X13	Y13	Z13	X14	Y14	Z14	X15	Y15	Z15	X16	Y16	Z16	X17	Y17	Z17	X18	Y18	Z18	X19	Y19	Z19	X20	Y20	Z20	X21	Y21	Z21	X22	Y22	Z22	X23	Y23	Z23	X24	Y24	Z24	X25	Y25	Z25	X26	Y26	Z26	X27	Y27	Z27	X28	Y28	Z28	X29	Y29	Z29	X30	Y30	Z30	X31	Y31	Z31	X32	Y32	Z32	X33	Y33	Z33	X34	Y34	Z34	X35	Y35	Z35	X36	Y36	Z36	X37	Y37	Z37	X38	Y38	Z38	

89	0.880000	-43.688024	1071.278038	5.513592	156.497789	1026.396585	128.962909	156.234561	1034.904462	-103.327079	16.680062	533.537990	174.383383	41.648592	522.673420	66.136261	148.309849	867.306777	171.096365	159.245679	744.048088	137.016560	105.880613	743.448853	196.610970	21.494757	537.658794	-163.429875	29.254381	521.056015	-55.752303	157.967013	862.465528	-144.131356	160.419203	744.587595	-94.631797	122.195846	742.828402	-171.033688	11.833386	111.595484	183.762253	20.757063	107.619596	99.443302	67.723805	329.602046	164.733354	45.203596	217.189497	108.861692	34.074546	213.551217	190.193004	6.070623	99.919342	-174.969068	25.313694	104.859320	-86.477062	60.479697	332.450514	-149.479378	41.814938	214.465512	-104.966585	28.480490	217.270278	-183.516065	-56.122905	53.672238	127.695692	174.698987	62.748225	115.676459	161.901967	57.010961	191.801021	-62.451601	56.937685	-125.378345	174.520629	58.937411	-112.319869	151.698101	51.703574	-197.128189	152.899586	1461.791798	12.544518	109.857096	1499.200039	203.945019	95.262267	1506.553229	-189.222965	15.692158	102.389331	-130.723065	16.295225	109.607540	141.602778	82.572279	966.370240	-73.516324	82.762543	960.220658	94.385275	25.374569	529.357404	-109.591089	29.164327	528.105705	120.259822	
90	0.890000	-43.724726	1071.290266	5.522683	156.462174	1026.392898	128.953641	156.177314	1034.900391	-103.338008	16.648722	533.530472	174.387293	41.615962	522.670798	66.135328	148.270500	867.304701	171.089103	159.205268	744.043871	137.010025	105.844675	743.446151	196.612349	21.458691	537.656430	-163.434107	29.224070	521.053160	-55.754349	157.915209	862.465315	-144.135722	160.364018	744.586681	-94.641050	122.147510	742.824628	-171.035062	11.832382	111.595521	183.762526	20.756037	107.619322	99.441988	67.707815	329.602995	164.729968	45.190536	217.188669	108.860585	34.066914	213.551067	190.193849	6.070558	99.918158	-174.969930	25.311881	104.858647	-86.476344	60.460386	332.454329	-149.482802	41.803724	214.464603	-104.966025	28.471189	217.269763	-183.514681	-56.123272	53.672617	127.694938	174.697535	62.748565	115.676069	161.901717	57.012007	191.800103	-62.451474	56.937338	-125.379793	174.520490	58.937912	-112.319592	151.697968	51.703699	-197.129042	152.913400	1461.784914	12.536287	109.905525	1499.195758	203.934005	95.270882	1506.570580	-189.228744	15.691220	102.388402	-130.723137	16.294210	109.607422	141.602257	82.513455	966.371842	-73.519768	82.719355	960.222542	94.382928	25.341381	529.354795	-109.594228	29.132342	528.100635	120.261310	
91	0.900000	-43.758507	1071.300506	5.529683	156.421161	1026.390986	128.947495	156.123659	1034.897341	-103.345389	16.615756	533.524013	174.393969	41.587739	522.669913	66.135149	148.228539	867.305359	171.086429	159.165900	744.042837	137.009051	105.804879	743.445007	196.616985	21.429236	537.654579	-163.438122	29.196491	521.049662	-55.755249	157.870382	862.465819	-144.135932	160.316936	744.586820	-94.645348	122.108401	742.821347	-171.034340	11.831759	111.595624	183.762581	20.755201	107.619093	99.440999	67.692848	329.605364	164.727834	45.177749	217.187352	108.859783	34.058038	213.551043	190.194903	6.071173	99.916763	-174.970232	25.309643	104.858101	-86.475123	60.445096	332.457449	-149.485226	41.793854	214.464590	-104.966020	28.464896	217.269403	-183.513746	-56.123207	53.673176	127.694680	174.695778	62.748956	115.675644	161.901482	57.013075	191.799596	-62.451091	56.937332	-125.381293	174.520971	58.938348	-112.319320	151.697728	51.703798	-197.129949	152.925079	1461.777276	12.526586	109.951475	1499.195655	203.918602	95.279588	1506.588186	-189.237219	15.690408	102.387432	-130.722678	16.293480	109.607358	141.601790	82.458920	966.373595	-73.522412	82.673957	960.225120	94.381100	25.312864	529.352120	-109.596685	29.101747	528.096963	120.264559	
92	0.910000	-43.790136	1071.308690	5.534164	156.375498	1026.390719	128.944560	156.074018	1034.894837	-103.349257	16.582836	533.518111	174.398156	41.563752	522.670550	66.135468	148.184695	867.308772	171.088062	159.127478	744.044765	137.013173	105.761523	743.445368	196.624136	21.405788	537.652994	-163.441837	29.171051	521.045238	-55.755223	157.831988	862.466618	-144.132280	160.277268	744.587549	-94.644948	122.077453	742.818379	-171.032054	11.831575	111.595736	183.762382	20.754611	107.618945	99.440400	67.679212	329.609136	164.727019	45.165597	217.185749	108.859210	34.047937	213.551185	190.196025	6.072307	99.915099	-174.970047	25.306919	104.857619	-86.473587	60.433413	332.459750	-149.486618	41.785167	214.465635	-104.966646	28.461193	217.269131	-183.513520	-56.122821	53.673847	127.694911	174.693879	62.749455	115.675283	161.901162	57.014103	191.799491	-62.450555	56.937624	-125.382641	174.521949	58.938670	-112.319004	151.697381	51.703903	-197.130857	152.933469	1461.768568	12.515416	109.993339	1499.198962	203.899019	95.288628	1506.604923	-189.248465	15.689613	102.386359	-130.721817	16.293093	109.607341	141.601391	82.408817	966.375082	-73.524068	82.626730	960.228227	94.380066	25.288420	529.349116	-109.598530	29.073294	528.094331	120.266812	
93	0.920000	-43.820499	1071.314835	5.535684	156.326224	1026.391901	128.944914	156.028744	1034.892434	-103.349663	16.551745	533.512128	174.394149	41.543467	522.672407	66.136068	148.139579	867.314791	171.093677	159.089685	744.049212	137.021915	105.714994	743.447157	196.633197	21.387434	537.651373	-163.445159	29.147208	521.039765	-55.754517	157.799482	862.467303	-144.125049	160.244156	744.588418	-94.639943	122.053593	742.815507	-171.028495	11.831810	111.595806	183.761898	20.754284	107.618933	99.440197	67.667005	329.614144	164.727478	45.154438	217.184151	108.858811	34.036697	213.551547	190.197071	6.073737	99.913147	-174.969519	25.303702	104.857127	-86.471930	60.424718	332.461165	-149.487019	41.777479	214.467728	-104.967768	28.459501	217.268848	-183.514104	-56.122263	53.674556	127.695520	174.692031	62.750105	115.675083	161.900656	57.015041	191.799740	-62.449976	56.938121	-125.383657	174.523253	58.938819	-112.318577	151.696932	51.704043	-197.131715	152.937884	1461.758781	12.502989	110.029183	1499.204767	203.875729	95.298642	1506.619898	-189.262311	15.688720	102.385137	-130.720725	16.293047	109.607370	141.601047	82.363200	966.375931	-73.524471	82.578221	960.231669	94.380172	25.267321	529.345569	-109.599838	29.047606	528.092268	120.265109	
94	0.930000	-43.850467	1071.319056	5.533844	156.274569	1026.394265	128.948551	155.988080	1034.889753	-103.346718	16.524122	533.505497	174.376957	41.526089	522.675158	66.136784	148.093692	867.323093	171.102880	159.052098	744.055588	137.034778	105.665818	743.450273	196.643724	21.373012	537.649407	-163.448011	29.124494	521.033288	-55.753392	157.772341	862.467502	-144.114565	160.216650	744.589026	-94.630356	122.035774	742.812501	-171.023723	11.832370	111.595799	183.761116	20.754194	107.619109	99.440335	67.656098	329.620086	164.729068	45.144604	217.182919	108.858571	34.024494	213.552200	190.197914	6.075202	99.910936	-174.968836	25.300055	104.856550	-86.470339	60.418243	332.461695	-149.486556	41.770610	214.470688	-104.969088	28.459121	217.268439	-183.515441	-56.121697	53.675217	127.696322	174.690422	62.750931	115.675118	161.899888	57.015864	191.800262	-62.449443	56.938682	-125.384200	174.524689	58.938746	-112.317975	151.696380	51.704239	-197.132480	152.938240	1461.748228	12.489766	110.056860	1499.212126	203.849448	95.310600	1506.632451	-189.278373	15.687628	102.383743	-130.719588	16.293282	109.607454	141.600726	82.322013	966.375854	-73.523364	82.529089	960.235239	94.381748	25.248753	529.341347	-109.600701	29.025106	528.090327	120.256870	
95	0.940000	-43.880776	1071.321577	5.528335	156.221840	1026.397472	128.955339	155.952116	1034.886506	-103.340645	16.501205	533.497907	174.343392	41.510732	522.678519	66.137487	148.047464	867.333226	171.115174	159.014345	744.063253	137.051203	105.614699	743.454599	196.655429	21.361202	537.646826	-163.450360	29.102531	521.026006	-55.752121	157.750053	862.466905	-144.101241	160.193772	744.589045	-94.616266	122.022977	742.809142	-171.017643	11.833111	111.595708	183.760062	20.754271	107.619511	99.440706	67.646174	329.626544	164.731558	45.136375	217.182429	108.858505	34.011613	213.553226	190.198467	6.076436	99.908536	-174.968204	25.296113	104.855820	-86.468970	60.413131	332.461406	-149.485433	41.764399	214.474202	-104.970236	28.459311	217.267793	-183.517345	-56.121273	53.675748	127.697104	174.689211	62.751935	115.675423	161.898835	57.016583	191.800961	-62.449017	56.939129	-125.384187	174.526068	58.938432	-112.317157	151.695723	51.704502	-197.133120	152.935109	1461.737514	12.476469	110.074192	1499.220176	203.821093	95.325730	1506.642113	-189.296105	15.686275	102.382178	-130.718587	16.293691	109.607610	141.600384	82.285070	966.374675	-73.520577	82.480029	960.238726	94.385024	25.231866	529.336416	-109.601240	29.005968	528.088213	120.240440	
96	0.950000	-43.911954	1071.322737	5.518960	156.169307	1026.401126	128.964986	155.920769	1034.882509	-103.331821	16.483646	533.489412	174.292839	41.496604	522.682305	66.138078	148.001304	867.344664	171.129926	158.976262	744.071614	137.070528	105.562508	743.459995	196.668120	21.350644	537.643446	-163.452253	29.081034	521.018229	-55.750998	157.732088	862.465274	-144.085623	160.174541	744.588234	-94.597950	122.014180	742.805252	-171.010110	11.833872	111.595562	183.758806	20.754418	107.620161	99.441166	67.636807	329.633034	164.734633	45.129930	217.182992	108.858645	33.998449	213.554705	190.198687	6.077206	99.906036	-174.967807	25.292083	104.854884	-86.467939	60.408521	332.460412	-149.483915	41.758726	214.477882	-104.970866	28.459360	217.266822	-183.519552	-56.121099	53.676079	127.697671	174.688501	62.753093	115.675988	161.897535	57.017244	191.801745	-62.448729	56.939276	-125.383601	174.527231	58.937901	-112.316119	151.694951	51.704827	-197.133620	152.929672	1461.727451	12.464081	110.079180	1499.228224	203.791749	95.345446	1506.648539	-189.314841	15.684644	102.380460	-130.717873	16.294145	109.607862	141.599986	82.252053	966.372340	-73.516098	82.431698	960.241922	94.390065	25.215839	529.330837	-109.601625	28.990125	528.085859	120.215458	
